# xmcd
#
# Track frame offsets:
#	150
#	14037
#	23570
#	35130
#	53662
#	66432
#	78030
#	90067
#	106697
#	119475
#
# Disc length: 1772
#
# Revision: 4
# Processed by: cddbd v1.5.1PL0 Copyright (c) Steve Scherf et al.
# Submitted via: dBpowerAMP V4.0
# Normalized: r2:TSWAP
#
DISCID=7106ea0a
DTITLE=Various Artist - Country's Greatest Hits
DYEAR=1900
DGENRE=Country
TTITLE0=Terri Bibbs - Somebody's Knockin'
TTITLE1=Ernest Tubb - Walking The Floor Over You
TTITLE2=Kitty Wells - It Wasn't God Who Make Honky Tonk Angels
TTITLE3=Don Williams - I Believe In You
TTITLE4=Bob Wills - San Antonio Rose
TTITLE5=Red Sovine And Webb Pierce - Why Baby Why
TTITLE6=Conway Twitty and Loretta Lynn - It's Only Make Believe
TTITLE7=Cal Smith - Country Bumkin
TTITLE8=Patsy Cline - I Fall To Pieces
TTITLE9=Tanya Tucker - Here's Some Love
EXTD=
EXTT0=
EXTT1=
EXTT2=
EXTT3=
EXTT4=
EXTT5=
EXTT6=
EXTT7=
EXTT8=
EXTT9=
PLAYORDER=
